<mxfile host="app.diagrams.net" modified="2022-10-10T13:01:46.461Z" agent="5.0 (Windows NT 10.0; Win64; x64) AppleWebKit/537.36 (KHTML, like Gecko) Chrome/105.0.0.0 Safari/537.36" etag="zzXXsBTvE-2X8HV5VKOJ" version="20.3.7" type="github">
  <diagram id="b6GsvIlS27f9eU4Bo8WO" name="第 1 页">
    <mxGraphModel dx="1292" dy="696" grid="1" gridSize="10" guides="1" tooltips="1" connect="1" arrows="1" fold="1" page="1" pageScale="1" pageWidth="827" pageHeight="1169" math="0" shadow="0">
      <root>
        <mxCell id="0" />
        <mxCell id="1" parent="0" />
        <mxCell id="itHYpfnD94lnkCM19PB--23" value="&lt;p style=&quot;margin:0px;margin-top:4px;text-align:center;&quot;&gt;DefenceCommand&lt;br&gt;&lt;/p&gt;&lt;hr size=&quot;1&quot;&gt;&lt;p style=&quot;margin:0px;margin-left:4px;&quot;&gt;cmdType CommandType&lt;/p&gt;&lt;p style=&quot;margin:0px;margin-left:4px;&quot;&gt;owner&amp;nbsp; &amp;nbsp;*BattleUnit&lt;/p&gt;&lt;hr size=&quot;1&quot;&gt;&lt;p style=&quot;margin:0px;margin-left:4px;&quot;&gt;&lt;/p&gt;func Execute()&lt;br style=&quot;padding: 0px; margin: 0px;&quot;&gt;func GetType(): Type" style="verticalAlign=top;align=left;overflow=fill;fontSize=12;fontFamily=Helvetica;html=1;fillColor=#e1d5e7;strokeColor=#9673a6;" vertex="1" parent="1">
          <mxGeometry x="555" y="20" width="155" height="110" as="geometry" />
        </mxCell>
        <mxCell id="itHYpfnD94lnkCM19PB--24" value="&lt;p style=&quot;margin:0px;margin-top:4px;text-align:center;&quot;&gt;EscapeCommand&lt;br&gt;&lt;/p&gt;&lt;hr size=&quot;1&quot;&gt;&lt;p style=&quot;margin:0px;margin-left:4px;&quot;&gt;cmdType CommandType&lt;/p&gt;&lt;p style=&quot;margin:0px;margin-left:4px;&quot;&gt;owner&amp;nbsp; &amp;nbsp;*BattleUnit&lt;/p&gt;&lt;p style=&quot;margin:0px;margin-left:4px;&quot;&gt;escapeType EscapeType&lt;/p&gt;&lt;hr size=&quot;1&quot;&gt;&lt;p style=&quot;margin:0px;margin-left:4px;&quot;&gt;&lt;/p&gt;func Execute()&lt;br style=&quot;padding: 0px; margin: 0px;&quot;&gt;func GetType(): Type" style="verticalAlign=top;align=left;overflow=fill;fontSize=12;fontFamily=Helvetica;html=1;fillColor=#f8cecc;strokeColor=#b85450;" vertex="1" parent="1">
          <mxGeometry x="555" y="140" width="155" height="90" as="geometry" />
        </mxCell>
        <mxCell id="itHYpfnD94lnkCM19PB--25" value="&lt;p style=&quot;margin:0px;margin-top:4px;text-align:center;&quot;&gt;SwapPosCommand&lt;br&gt;&lt;/p&gt;&lt;hr size=&quot;1&quot;&gt;&lt;p style=&quot;margin:0px;margin-left:4px;&quot;&gt;cmdType CommandType&lt;/p&gt;&lt;p style=&quot;margin:0px;margin-left:4px;&quot;&gt;owner&amp;nbsp; &amp;nbsp;*BattleUnit&lt;/p&gt;&lt;p style=&quot;margin:0px;margin-left:4px;&quot;&gt;tarPos int32&lt;/p&gt;&lt;hr size=&quot;1&quot;&gt;&lt;p style=&quot;margin:0px;margin-left:4px;&quot;&gt;&lt;/p&gt;func Execute()&lt;br style=&quot;padding: 0px; margin: 0px;&quot;&gt;func GetType(): Type" style="verticalAlign=top;align=left;overflow=fill;fontSize=12;fontFamily=Helvetica;html=1;fillColor=#ffe6cc;strokeColor=#d79b00;" vertex="1" parent="1">
          <mxGeometry x="555" y="250" width="155" height="120" as="geometry" />
        </mxCell>
        <mxCell id="itHYpfnD94lnkCM19PB--26" value="&lt;p style=&quot;margin:0px;margin-top:4px;text-align:center;&quot;&gt;SpellSkillCommand&amp;nbsp;&lt;br&gt;&lt;/p&gt;&lt;hr size=&quot;1&quot;&gt;&lt;p style=&quot;margin:0px;margin-left:4px;&quot;&gt;cmdType CommandType&lt;/p&gt;&lt;p style=&quot;margin:0px;margin-left:4px;&quot;&gt;owner&amp;nbsp; &amp;nbsp;*BattleUnit&lt;/p&gt;&lt;p style=&quot;margin:0px;margin-left:4px;&quot;&gt;skillID&amp;nbsp; uint32&lt;/p&gt;&lt;p style=&quot;margin:0px;margin-left:4px;&quot;&gt;targetID uint32&lt;/p&gt;&lt;p style=&quot;margin:0px;margin-left:4px;&quot;&gt;targetPos&lt;/p&gt;&lt;hr size=&quot;1&quot;&gt;&lt;p style=&quot;margin:0px;margin-left:4px;&quot;&gt;&lt;/p&gt;func Execute()&lt;br style=&quot;padding: 0px; margin: 0px;&quot;&gt;func GetType(): Type" style="verticalAlign=top;align=left;overflow=fill;fontSize=12;fontFamily=Helvetica;html=1;fillColor=#d5e8d4;strokeColor=#82b366;" vertex="1" parent="1">
          <mxGeometry x="70" y="190" width="152.5" height="150" as="geometry" />
        </mxCell>
        <mxCell id="itHYpfnD94lnkCM19PB--27" value="&lt;p style=&quot;margin:0px;margin-top:4px;text-align:center;&quot;&gt;UseItemCommand&amp;nbsp;&lt;br&gt;&lt;/p&gt;&lt;hr size=&quot;1&quot;&gt;&lt;p style=&quot;margin:0px;margin-left:4px;&quot;&gt;cmdType CommandType&lt;/p&gt;&lt;p style=&quot;margin:0px;margin-left:4px;&quot;&gt;owner&amp;nbsp; &amp;nbsp;*BattleUnit&lt;/p&gt;&lt;p style=&quot;margin:0px;margin-left:4px;&quot;&gt;targetID uint32&lt;/p&gt;&lt;p style=&quot;margin:0px;margin-left:4px;&quot;&gt;itemID uint32&lt;/p&gt;&lt;hr size=&quot;1&quot;&gt;&lt;p style=&quot;margin:0px;margin-left:4px;&quot;&gt;&lt;/p&gt;func Execute()&lt;br style=&quot;padding: 0px; margin: 0px;&quot;&gt;func GetType(): Type" style="verticalAlign=top;align=left;overflow=fill;fontSize=12;fontFamily=Helvetica;html=1;fillColor=#bac8d3;strokeColor=#23445d;" vertex="1" parent="1">
          <mxGeometry x="70" y="20" width="152.5" height="150" as="geometry" />
        </mxCell>
        <mxCell id="itHYpfnD94lnkCM19PB--32" value="&lt;p style=&quot;margin:0px;margin-top:4px;text-align:center;&quot;&gt;&lt;i&gt;&amp;lt;&amp;lt;Interface&amp;gt;&amp;gt;&lt;/i&gt;&lt;br&gt;&lt;b&gt;Command&lt;/b&gt;&lt;/p&gt;&lt;hr size=&quot;1&quot;&gt;&lt;p style=&quot;margin: 0px 0px 0px 4px;&quot;&gt;cmdType CommandType&lt;/p&gt;&lt;p style=&quot;margin: 0px 0px 0px 4px;&quot;&gt;owner&amp;nbsp; &amp;nbsp;*BattleUnit&lt;/p&gt;&lt;hr size=&quot;1&quot;&gt;&lt;p style=&quot;margin:0px;margin-left:4px;&quot;&gt;func Execute()&lt;br&gt;func GetType(): Type&lt;br&gt;&lt;/p&gt;" style="verticalAlign=top;align=left;overflow=fill;fontSize=12;fontFamily=Helvetica;html=1;fillColor=#dae8fc;strokeColor=#6c8ebf;" vertex="1" parent="1">
          <mxGeometry x="300" y="20" width="190" height="120" as="geometry" />
        </mxCell>
        <mxCell id="itHYpfnD94lnkCM19PB--35" value="" style="endArrow=block;dashed=1;endFill=0;endSize=12;html=1;rounded=0;" edge="1" parent="1">
          <mxGeometry width="160" relative="1" as="geometry">
            <mxPoint x="490" y="80" as="sourcePoint" />
            <mxPoint x="550" y="80" as="targetPoint" />
          </mxGeometry>
        </mxCell>
        <mxCell id="itHYpfnD94lnkCM19PB--36" value="" style="endArrow=block;dashed=1;endFill=0;endSize=12;html=1;rounded=0;entryX=-0.012;entryY=0.35;entryDx=0;entryDy=0;entryPerimeter=0;" edge="1" parent="1" target="itHYpfnD94lnkCM19PB--24">
          <mxGeometry width="160" relative="1" as="geometry">
            <mxPoint x="490" y="80" as="sourcePoint" />
            <mxPoint x="550" y="80" as="targetPoint" />
          </mxGeometry>
        </mxCell>
        <mxCell id="itHYpfnD94lnkCM19PB--37" value="" style="endArrow=block;dashed=1;endFill=0;endSize=12;html=1;rounded=0;" edge="1" parent="1">
          <mxGeometry width="160" relative="1" as="geometry">
            <mxPoint x="490" y="79.71000000000001" as="sourcePoint" />
            <mxPoint x="550" y="250" as="targetPoint" />
          </mxGeometry>
        </mxCell>
        <mxCell id="itHYpfnD94lnkCM19PB--40" value="" style="endArrow=block;dashed=1;endFill=0;endSize=12;html=1;rounded=0;exitX=-0.008;exitY=0.432;exitDx=0;exitDy=0;exitPerimeter=0;entryX=1.009;entryY=0.54;entryDx=0;entryDy=0;entryPerimeter=0;" edge="1" parent="1" source="itHYpfnD94lnkCM19PB--32" target="itHYpfnD94lnkCM19PB--27">
          <mxGeometry width="160" relative="1" as="geometry">
            <mxPoint x="270" y="200" as="sourcePoint" />
            <mxPoint x="330" y="200" as="targetPoint" />
          </mxGeometry>
        </mxCell>
        <mxCell id="itHYpfnD94lnkCM19PB--41" value="" style="endArrow=block;dashed=1;endFill=0;endSize=12;html=1;rounded=0;exitX=-0.013;exitY=0.455;exitDx=0;exitDy=0;exitPerimeter=0;entryX=1.009;entryY=0.54;entryDx=0;entryDy=0;entryPerimeter=0;" edge="1" parent="1" source="itHYpfnD94lnkCM19PB--32">
          <mxGeometry width="160" relative="1" as="geometry">
            <mxPoint x="300" y="200.84000000000003" as="sourcePoint" />
            <mxPoint x="225.39249999999996" y="230" as="targetPoint" />
          </mxGeometry>
        </mxCell>
      </root>
    </mxGraphModel>
  </diagram>
</mxfile>
